<svg width="49" height="48" viewBox="0 0 49 48" fill="none" xmlns="http://www.w3.org/2000/svg">
<path d="M17.5167 41.2555L5.41118 29.15C5.05551 28.7983 4.79268 28.4062 4.62268 27.9735C4.45268 27.5412 4.36768 27.0942 4.36768 26.6325C4.36768 26.1708 4.45268 25.73 4.62268 25.31C4.79268 24.8903 5.05551 24.5025 5.41118 24.1465L17.6482 11.9215L12.9982 7.26001C12.6582 6.92801 12.4902 6.53601 12.4942 6.08401C12.4982 5.63235 12.6702 5.24051 13.0102 4.90851C13.3422 4.57684 13.739 4.41101 14.2007 4.41101C14.6627 4.41101 15.0622 4.57684 15.3992 4.90851L34.6252 24.1465C34.9888 24.5025 35.2557 24.8903 35.4257 25.31C35.5957 25.73 35.6807 26.1708 35.6807 26.6325C35.6807 27.0942 35.5957 27.5412 35.4257 27.9735C35.2557 28.4062 34.9888 28.7983 34.6252 29.15L22.5202 41.2555C22.1722 41.6032 21.7863 41.864 21.3627 42.038C20.9387 42.212 20.4958 42.299 20.0342 42.299C19.5725 42.299 19.1275 42.214 18.6992 42.044C18.2705 41.874 17.8763 41.6112 17.5167 41.2555ZM20.0372 14.323L7.80018 26.56H32.2742L20.0372 14.323ZM40.8527 42.299C39.7093 42.299 38.7418 41.8987 37.9502 41.098C37.1582 40.2973 36.7622 39.3165 36.7622 38.1555C36.7622 37.2955 36.915 36.4762 37.2207 35.6975C37.526 34.9188 37.9493 34.2042 38.4907 33.5535L39.8622 31.8055C40.1195 31.4735 40.4515 31.3095 40.8582 31.3135C41.2645 31.3175 41.6003 31.4815 41.8657 31.8055L43.2252 33.5535C43.7332 34.2042 44.1523 34.9188 44.4827 35.6975C44.8127 36.4762 44.9777 37.2955 44.9777 38.1555C44.9777 39.3165 44.576 40.2973 43.7727 41.098C42.9693 41.8987 41.996 42.299 40.8527 42.299Z" fill="#28160E"/>
</svg>
