<svg width="49" height="48" viewBox="0 0 49 48" fill="none" xmlns="http://www.w3.org/2000/svg">
<path d="M9.18031 44.55C8.64464 44.55 8.15214 44.325 7.70281 43.875C7.25348 43.4253 7.02881 42.9321 7.02881 42.3955V36.985C7.02881 33.9096 7.98564 31.189 9.89931 28.823C11.813 26.457 14.2771 24.9493 17.2918 24.3C15.9245 25.261 14.8648 26.4708 14.1128 27.9295C13.3605 29.3881 12.9843 30.9526 12.9843 32.623V42.398C12.9843 42.7753 13.0363 43.1513 13.1403 43.526C13.2443 43.9006 13.417 44.242 13.6583 44.55H9.18031ZM16.7373 44.55C16.153 44.55 15.6478 44.3373 15.2218 43.912C14.7955 43.487 14.5823 42.983 14.5823 42.4V32.627C14.5823 30.2306 15.4291 28.1936 17.1228 26.516C18.8168 24.8386 20.8625 24 23.2598 24H32.9693C35.3666 24 37.4043 24.8386 39.0823 26.516C40.7606 28.1933 41.5998 30.23 41.5998 32.626V35.9125C41.5998 38.3085 40.7608 40.3471 39.0828 42.0285C37.4045 43.7095 35.3668 44.55 32.9698 44.55H16.7373ZM24.3273 19.6805C22.0676 19.6805 20.1511 18.8918 18.5778 17.3145C17.0048 15.7375 16.2183 13.821 16.2183 11.565C16.2183 9.30928 17.0068 7.39295 18.5838 5.81595C20.1611 4.23862 22.0796 3.44995 24.3393 3.44995C26.599 3.44995 28.5155 4.23862 30.0888 5.81595C31.6618 7.39295 32.4483 9.30928 32.4483 11.565C32.4483 13.821 31.6598 15.7375 30.0828 17.3145C28.5055 18.8918 26.587 19.6805 24.3273 19.6805Z" fill="#28160E"/>
</svg>
