<svg width="48" height="48" viewBox="0 0 48 48" fill="none" xmlns="http://www.w3.org/2000/svg">
<path d="M17.5214 35.524H30.4899C30.9319 35.524 31.3024 35.3726 31.6014 35.07C31.9004 34.7673 32.0499 34.3921 32.0499 33.9445C32.0499 33.5005 31.9004 33.1308 31.6014 32.8355C31.3024 32.5401 30.9319 32.3925 30.4899 32.3925H17.5099C17.0679 32.3925 16.6974 32.5426 16.3984 32.843C16.0994 33.1433 15.9499 33.5156 15.9499 33.96C15.9499 34.404 16.1006 34.7756 16.4019 35.075C16.7033 35.3743 17.0764 35.524 17.5214 35.524ZM17.5214 27.024H30.4899C30.9319 27.024 31.3024 26.8726 31.6014 26.57C31.9004 26.2673 32.0499 25.8921 32.0499 25.4445C32.0499 25.0005 31.9004 24.6308 31.6014 24.3355C31.3024 24.0401 30.9319 23.8925 30.4899 23.8925H17.5099C17.0679 23.8925 16.6974 24.0426 16.3984 24.343C16.0994 24.6433 15.9499 25.0156 15.9499 25.46C15.9499 25.904 16.1006 26.2756 16.4019 26.575C16.7033 26.8743 17.0764 27.024 17.5214 27.024ZM11.1074 44.299C10.1874 44.299 9.38976 43.9611 8.71443 43.2855C8.03876 42.6101 7.70093 41.8125 7.70093 40.8925V7.10746C7.70093 6.18413 8.03876 5.38363 8.71443 4.70596C9.38976 4.02796 10.1874 3.68896 11.1074 3.68896H27.7519C28.2236 3.68896 28.6731 3.7843 29.1004 3.97496C29.5278 4.16563 29.8946 4.41413 30.2009 4.72046L39.2794 13.799C39.5858 14.1053 39.8343 14.4721 40.0249 14.8995C40.2156 15.3268 40.3109 15.7763 40.3109 16.248V40.8925C40.3109 41.8125 39.9719 42.6101 39.2939 43.2855C38.6163 43.9611 37.8158 44.299 36.8924 44.299H11.1074ZM27.4424 14.7045V7.10746H11.1074V40.8925H36.8924V16.4075H29.1454C28.6648 16.4075 28.2608 16.2438 27.9334 15.9165C27.6061 15.5891 27.4424 15.1851 27.4424 14.7045Z" fill="#28160E"/>
</svg>
