<svg width="118" height="40" viewBox="0 0 118 40" fill="none" xmlns="http://www.w3.org/2000/svg">
<g clip-path="url(#clip0_8214_5038)">
<path d="M8.83222 9.57258V23.2578C8.83222 23.7542 8.96545 24.1284 9.23583 24.4002C9.50621 24.6721 9.85105 24.802 10.286 24.802C10.8777 24.802 11.5282 24.7981 12.2335 24.7824C12.9389 24.7666 13.6717 24.7469 14.4358 24.7193L16.7517 24.6327C17.5158 24.6051 18.5268 24.5499 19.7533 24.4633C20.9876 24.3766 22.5276 24.2781 24.3733 24.1639L25.0003 24.1245V31.0656L24.4634 31.1168C18.1467 31.6841 12.8331 31.9716 8.67156 31.9716C5.74046 31.9716 3.54215 31.2507 2.12754 29.8326C0.716855 28.4144 -0.000244141 26.2005 -0.000244141 23.2578V9.57258C-0.000244141 6.42899 0.736448 4.09297 2.19416 2.63148C3.64795 1.16998 5.97166 0.425448 9.09476 0.425448H25.0003V7.59504H10.7993C9.42 7.59504 8.83222 8.18594 8.83222 9.57258Z" fill="#28160E"/>
<path d="M53.0103 2.20209C51.5526 0.740595 49.2289 0 46.1058 0H35.4707C32.3437 0 30.0239 0.740595 28.5662 2.20209C27.1124 3.66752 26.3757 5.99961 26.3757 9.14319V22.8284C26.3757 25.972 27.1124 28.3041 28.5662 29.7695C30.0239 31.231 32.3437 31.9716 35.4707 31.9716H46.1058C49.2328 31.9716 51.5526 31.231 53.0103 29.7695C54.4641 28.3041 55.2008 25.972 55.2008 22.8284V9.14319C55.2008 6.00354 54.4641 3.66752 53.0103 2.20209ZM44.4051 24.802H37.1714C35.796 24.802 35.2082 24.2151 35.2082 22.8284V9.14319C35.2082 7.76049 35.796 7.16959 37.1714 7.16959H44.4051C45.7805 7.16959 46.3683 7.76049 46.3683 9.14319V22.8284C46.3683 24.2151 45.7805 24.802 44.4051 24.802Z" fill="#28160E"/>
<path d="M85.3737 19.5588C84.6487 17.4 83.3713 15.8834 81.5687 15.0286C82.2388 14.5677 82.8344 13.961 83.3438 13.2204C84.1471 12.0583 84.5547 10.5417 84.5547 8.71775C84.5547 5.96809 83.8376 3.87631 82.4191 2.49754C81.0044 1.12271 78.8061 0.425448 75.8829 0.425448H58.2806V31.5462H77.1603C80.0875 31.5462 82.2897 30.8253 83.7004 29.4032C85.115 27.985 85.8321 25.7711 85.8321 22.8284C85.8321 21.6033 85.6793 20.5082 85.3737 19.5588ZM73.7551 7.59504C75.1344 7.59504 75.7222 8.18594 75.7222 9.57258V10.4274C75.7222 11.8101 75.1344 12.401 73.7551 12.401H67.1131V7.59504H73.7551ZM76.9957 22.3991C76.9957 23.7857 76.4119 24.3766 75.0325 24.3766H67.1131V19.5706H75.0325C76.4119 19.5706 76.9957 20.1615 76.9957 21.5442V22.3991Z" fill="#28160E"/>
<path d="M106.279 0.425448H96.9609L85.2405 31.5462H94.8018L96.7141 26.2005H106.526L108.438 31.5462H118L106.279 0.425448ZM99.0378 19.4564L101.62 11.8338L104.202 19.4564H99.0378Z" fill="#28160E"/>
<path d="M0.959839 34.8237H3.85958C4.33373 34.8237 4.68248 34.9301 4.90584 35.1467C5.1292 35.3634 5.23892 35.6943 5.23892 36.1355C5.23892 36.427 5.17622 36.6634 5.05083 36.8446C4.92544 37.0258 4.76869 37.1558 4.58844 37.2267C4.9803 37.3331 5.24676 37.597 5.38783 38.0146C5.43485 38.1643 5.46228 38.3415 5.46228 38.5385C5.46228 39.0152 5.35256 39.3658 5.1292 39.5903C4.90584 39.8149 4.55709 39.9252 4.08294 39.9252H0.959839V34.8198V34.8237ZM3.93404 36.2813C3.93404 35.9898 3.78905 35.844 3.49907 35.844H2.26472V36.8643H3.49907C3.78905 36.8643 3.93404 36.7185 3.93404 36.427V36.2813ZM4.14956 38.3218C4.14956 38.0303 4.00457 37.8846 3.7146 37.8846H2.26472V38.9049H3.7146C4.00457 38.9049 4.14956 38.7591 4.14956 38.4676V38.3218Z" fill="#28160E"/>
<path d="M7.01409 39.9291H5.59949L7.51959 34.8237H8.96946L10.8896 39.9291H9.47496L9.14971 39.0191H7.33542L7.01017 39.9291H7.01409ZM7.66849 38.0697H8.82839L8.24844 36.3561L7.66849 38.0697ZM7.73903 34.5992L8.17399 33.3583H9.47888L8.67949 34.5992H7.73511H7.73903Z" fill="#28160E"/>
<path d="M11.1051 38.8694C12.4295 38.9443 13.3269 38.9797 13.7971 38.9797C13.9068 38.9797 13.997 38.9482 14.0636 38.8812C14.1302 38.8143 14.1615 38.7276 14.1615 38.6134V37.9555H12.4922C11.9828 37.9555 11.6145 37.8412 11.3872 37.6088C11.156 37.3764 11.0424 37.0061 11.0424 36.4979V36.2773C11.0424 35.7692 11.156 35.3949 11.3872 35.1664C11.6184 34.934 11.9867 34.8198 12.4922 34.8198H15.0393V35.8401H12.7822C12.4922 35.8401 12.3472 35.9858 12.3472 36.2773V36.4231C12.3472 36.7146 12.4922 36.8603 12.7822 36.8603H14.0871C14.5612 36.8603 14.91 36.9707 15.1333 37.1952C15.3567 37.4197 15.4664 37.7703 15.4664 38.247V38.6134C15.4664 39.09 15.3567 39.4406 15.1333 39.6652C14.91 39.8897 14.5612 40 14.0871 40C13.8402 40 13.5777 39.9961 13.3034 39.9842L12.6372 39.9567C12.1435 39.933 11.6341 39.8976 11.1051 39.8542V38.8694Z" fill="#28160E"/>
<path d="M18.5111 39.9291H15.9014V38.9088H16.5558V35.8479H15.9014V34.8277H18.5111V35.8479H17.8567V38.9088H18.5111V39.9291Z" fill="#28160E"/>
<path d="M23.0802 39.8542C22.0026 39.9527 21.1091 40 20.3959 40C19.9218 40 19.573 39.8897 19.3497 39.6652C19.1263 39.4406 19.0166 39.09 19.0166 38.6134V36.2813C19.0166 35.7731 19.1302 35.3989 19.3614 35.1704C19.5926 34.938 19.961 34.8237 20.4665 34.8237H23.0762V35.844H20.7564C20.4665 35.844 20.3215 35.9898 20.3215 36.2813V38.6134C20.3215 38.7237 20.3528 38.8143 20.4195 38.8812C20.4861 38.9482 20.5684 38.9797 20.6702 38.9797C20.7721 38.9797 20.8818 38.9797 21.0033 38.9797C21.1248 38.9797 21.2502 38.9718 21.3795 38.9679C21.5088 38.964 21.642 38.9561 21.7753 38.9521C21.9085 38.9482 22.0809 38.9364 22.2886 38.9246C22.5002 38.9088 22.7628 38.893 23.0762 38.8734V39.8582L23.0802 39.8542Z" fill="#28160E"/>
<path d="M28.2292 38.5424C28.2292 39.0546 28.1155 39.4249 27.8843 39.6533C27.6532 39.8818 27.2848 40 26.7793 40H24.965C24.4556 40 24.0872 39.8858 23.86 39.6533C23.6288 39.4209 23.5151 39.0506 23.5151 38.5424V36.2104C23.5151 35.6982 23.6288 35.3279 23.86 35.0995C24.0912 34.867 24.4595 34.7528 24.965 34.7528H26.7793C27.2887 34.7528 27.6571 34.867 27.8843 35.0995C28.1116 35.3319 28.2292 35.7022 28.2292 36.2104V38.5424ZM26.9243 36.2104C26.9243 35.9188 26.7793 35.7731 26.4893 35.7731H25.255C24.965 35.7731 24.82 35.9188 24.82 36.2104V38.5424C24.82 38.834 24.965 38.9797 25.255 38.9797H26.4893C26.7793 38.9797 26.9243 38.834 26.9243 38.5424V36.2104Z" fill="#28160E"/>
<path d="M28.8013 38.8694C30.1258 38.9443 31.0232 38.9797 31.4934 38.9797C31.6031 38.9797 31.6933 38.9482 31.7599 38.8812C31.8265 38.8143 31.8578 38.7276 31.8578 38.6134V37.9555H30.1885C29.6791 37.9555 29.3108 37.8412 29.0835 37.6088C28.8523 37.3764 28.7386 37.0061 28.7386 36.4979V36.2773C28.7386 35.7692 28.8523 35.3949 29.0835 35.1664C29.3147 34.934 29.683 34.8198 30.1885 34.8198H32.7356V35.8401H30.4785C30.1885 35.8401 30.0435 35.9858 30.0435 36.2773V36.4231C30.0435 36.7146 30.1885 36.8603 30.4785 36.8603H31.7834C32.2575 36.8603 32.6063 36.9707 32.8296 37.1952C33.053 37.4197 33.1627 37.7703 33.1627 38.247V38.6134C33.1627 39.09 33.053 39.4406 32.8296 39.6652C32.6063 39.8897 32.2575 40 31.7834 40C31.5365 40 31.274 39.9961 30.9997 39.9842L30.3335 39.9567C29.8398 39.933 29.3304 39.8976 28.8013 39.8542V38.8694Z" fill="#28160E"/>
<path d="M38.8171 34.8237C39.3618 34.8237 39.7772 34.9655 40.0593 35.2492C40.3415 35.5328 40.4825 35.9504 40.4825 36.4979V38.247C40.4825 38.7946 40.3415 39.2121 40.0593 39.4958C39.7772 39.7794 39.3618 39.9212 38.8171 39.9212H35.9879V34.8158H38.8171V34.8237ZM39.1776 36.5019C39.1776 36.0646 38.9582 35.844 38.5232 35.844H37.2889V38.9049H38.5232C38.9582 38.9049 39.1776 38.6843 39.1776 38.247V36.4979V36.5019Z" fill="#28160E"/>
<path d="M45.2358 39.9291H41.2114V34.8237H45.2358V35.844H42.5163V36.8288H44.6559V37.8491H42.5163V38.9049H45.2358V39.9252V39.9291Z" fill="#28160E"/>
<path d="M49.2955 38.9049H51.9444V39.9252H47.9906V34.8198H49.2955V38.9009V38.9049Z" fill="#28160E"/>
<path d="M53.355 39.9291H51.9404L53.8605 34.8237H55.3104L57.2305 39.9291H55.8159L55.4907 39.0191H53.6764L53.3511 39.9291H53.355ZM54.0094 38.0697H55.1693L54.5894 36.3561L54.0094 38.0697Z" fill="#28160E"/>
<path d="M63.6922 39.8542C62.6146 39.9527 61.7212 40 61.008 40C60.5339 40 60.1851 39.8897 59.9617 39.6652C59.7384 39.4406 59.6287 39.09 59.6287 38.6134V36.2813C59.6287 35.7731 59.7423 35.3989 59.9735 35.1704C60.2047 34.938 60.573 34.8237 61.0785 34.8237H63.6883V35.844H61.3685C61.0785 35.844 60.9335 35.9898 60.9335 36.2813V38.6134C60.9335 38.7237 60.9649 38.8143 61.0315 38.8812C61.0981 38.9482 61.1804 38.9797 61.2823 38.9797C61.3842 38.9797 61.4939 38.9797 61.6154 38.9797C61.7369 38.9797 61.8622 38.9718 61.9916 38.9679C62.1209 38.964 62.2541 38.9561 62.3873 38.9521C62.5206 38.9482 62.693 38.9364 62.9007 38.9246C63.1123 38.9088 63.3748 38.893 63.6883 38.8734V39.8582L63.6922 39.8542Z" fill="#28160E"/>
<path d="M68.8412 38.5424C68.8412 39.0546 68.7276 39.4249 68.4964 39.6533C68.2652 39.8818 67.8969 40 67.3914 40H65.5771C65.0677 40 64.6993 39.8858 64.472 39.6533C64.2408 39.4209 64.1272 39.0506 64.1272 38.5424V36.2104C64.1272 35.6982 64.2408 35.3279 64.472 35.0995C64.7032 34.867 65.0716 34.7528 65.5771 34.7528H67.3914C67.9008 34.7528 68.2691 34.867 68.4964 35.0995C68.7237 35.3319 68.8412 35.7022 68.8412 36.2104V38.5424ZM67.5364 36.2104C67.5364 35.9188 67.3914 35.7731 67.1014 35.7731H65.867C65.5771 35.7731 65.4321 35.9188 65.4321 36.2104V38.5424C65.4321 38.834 65.5771 38.9797 65.867 38.9797H67.1014C67.3914 38.9797 67.5364 38.834 67.5364 38.5424V36.2104Z" fill="#28160E"/>
<path d="M73.9902 39.9291H72.6109L70.871 36.8682V39.9291H69.5662V34.8237H70.9455L72.6853 37.8846V34.8237H73.9902V39.9291Z" fill="#28160E"/>
<path d="M74.7073 38.8694C76.0318 38.9443 76.9292 38.9797 77.3994 38.9797C77.5091 38.9797 77.5993 38.9482 77.6659 38.8812C77.7325 38.8143 77.7638 38.7276 77.7638 38.6134V37.9555H76.0945C75.5851 37.9555 75.2168 37.8412 74.9895 37.6088C74.7583 37.3764 74.6447 37.0061 74.6447 36.4979V36.2773C74.6447 35.7692 74.7583 35.3949 74.9895 35.1664C75.2207 34.934 75.589 34.8198 76.0945 34.8198H78.6416V35.8401H76.3845C76.0945 35.8401 75.9495 35.9858 75.9495 36.2773V36.4231C75.9495 36.7146 76.0945 36.8603 76.3845 36.8603H77.6894C78.1635 36.8603 78.5123 36.9707 78.7356 37.1952C78.959 37.4197 79.0687 37.7703 79.0687 38.247V38.6134C79.0687 39.09 78.959 39.4406 78.7356 39.6652C78.5123 39.8897 78.1635 40 77.6894 40C77.4425 40 77.18 39.9961 76.9057 39.9842L76.2395 39.9567C75.7458 39.933 75.2364 39.8976 74.7073 39.8542V38.8694Z" fill="#28160E"/>
<path d="M81.8235 39.9291H80.5186V35.8479H78.9943V34.8277H83.3439V35.8479H81.8196V39.9291H81.8235Z" fill="#28160E"/>
<path d="M83.8533 34.8237H86.898C87.4074 34.8237 87.7758 34.938 88.0031 35.1704C88.2303 35.4028 88.3479 35.7731 88.3479 36.2813V36.9391C88.3479 37.3409 88.2813 37.6561 88.148 37.8806C88.0148 38.1052 87.8032 38.2509 87.5132 38.3258L88.4184 39.9291H87.0038L86.1692 38.3967H85.1543V39.9291H83.8494V34.8237H83.8533ZM87.043 36.2813C87.043 35.9898 86.898 35.844 86.608 35.844H85.1582V37.3764H86.608C86.898 37.3764 87.043 37.2306 87.043 36.9391V36.2813Z" fill="#28160E"/>
<path d="M92.337 34.8237H93.6419V38.5424C93.6419 39.0546 93.5283 39.4249 93.2971 39.6533C93.0659 39.8818 92.6976 40 92.1921 40H90.5227C90.0133 40 89.645 39.8858 89.4177 39.6533C89.1865 39.4209 89.0729 39.0506 89.0729 38.5424V34.8237H90.3778V38.5424C90.3778 38.834 90.5227 38.9797 90.8127 38.9797H91.9021C92.1921 38.9797 92.337 38.834 92.337 38.5424V34.8237Z" fill="#28160E"/>
<path d="M98.4304 39.8542C97.3528 39.9527 96.4593 40 95.7462 40C95.272 40 94.9233 39.8897 94.6999 39.6652C94.4765 39.4406 94.3668 39.09 94.3668 38.6134V36.2813C94.3668 35.7731 94.4805 35.3989 94.7117 35.1704C94.9428 34.938 95.3112 34.8237 95.8167 34.8237H98.4265V35.844H96.1067C95.8167 35.844 95.6717 35.9898 95.6717 36.2813V38.6134C95.6717 38.7237 95.703 38.8143 95.7697 38.8812C95.8363 38.9482 95.9186 38.9797 96.0205 38.9797C96.1223 38.9797 96.2321 38.9797 96.3535 38.9797C96.475 38.9797 96.6004 38.9718 96.7297 38.9679C96.859 38.964 96.9923 38.9561 97.1255 38.9521C97.2587 38.9482 97.4311 38.9364 97.6388 38.9246C97.8465 38.9127 98.113 38.893 98.4265 38.8734V39.8582L98.4304 39.8542Z" fill="#28160E"/>
<path d="M102.925 39.8542C101.847 39.9527 100.954 40 100.241 40C99.7666 40 99.4179 39.8897 99.1945 39.6652C98.9712 39.4406 98.8615 39.09 98.8615 38.6134V36.2813C98.8615 35.7731 98.9751 35.3989 99.2063 35.1704C99.4336 34.938 99.8058 34.8237 100.311 34.8237H102.921V35.844H100.601C100.311 35.844 100.166 35.9898 100.166 36.2813V38.6134C100.166 38.7237 100.198 38.8143 100.264 38.8812C100.331 38.9482 100.413 38.9797 100.515 38.9797C100.617 38.9797 100.727 38.9797 100.848 38.9797C100.97 38.9797 101.095 38.9718 101.224 38.9679C101.354 38.964 101.487 38.9561 101.62 38.9521C101.753 38.9482 101.926 38.9364 102.133 38.9246C102.341 38.9127 102.608 38.893 102.921 38.8734V39.8582L102.925 39.8542Z" fill="#28160E"/>
<path d="M105.899 39.9291H103.289V38.9088H103.944V35.8479H103.289V34.8277H105.899V35.8479H105.245V38.9088H105.899V39.9291Z" fill="#28160E"/>
<path d="M111.123 38.5424C111.123 39.0546 111.009 39.4249 110.778 39.6533C110.547 39.8818 110.178 40 109.673 40H107.859C107.349 40 106.981 39.8858 106.754 39.6533C106.522 39.4209 106.409 39.0506 106.409 38.5424V36.2104C106.409 35.6982 106.522 35.328 106.754 35.0995C106.981 34.867 107.353 34.7528 107.859 34.7528H109.673C110.178 34.7528 110.551 34.867 110.778 35.0995C111.005 35.3319 111.123 35.7022 111.123 36.2104V38.5424ZM109.818 36.2104C109.818 35.9189 109.673 35.7731 109.383 35.7731H108.149C107.859 35.7731 107.714 35.9189 107.714 36.2104V38.5424C107.714 38.834 107.859 38.9797 108.149 38.9797H109.383C109.673 38.9797 109.818 38.834 109.818 38.5424V36.2104ZM108.258 34.5243L108.693 33.2834H109.998L109.199 34.5243H108.254H108.258Z" fill="#28160E"/>
<path d="M116.272 39.9291H114.892L113.153 36.8682V39.9291H111.848V34.8237H113.227L114.967 37.8846V34.8237H116.272V39.9291Z" fill="#28160E"/>
</g>
<defs>
<clipPath id="clip0_8214_5038">
<rect width="118" height="40" fill="white" transform="translate(-0.000244141)"/>
</clipPath>
</defs>
</svg>
