<svg width="24" height="24" viewBox="0 0 24 24" fill="none" xmlns="http://www.w3.org/2000/svg">
<path d="M3.70197 18.2213C3.46147 18.2213 3.25939 18.139 3.09572 17.9745C2.93205 17.81 2.85022 17.6049 2.85022 17.3593C2.85022 17.1176 2.93205 16.9159 3.09572 16.7543C3.25939 16.5928 3.46147 16.512 3.70197 16.512H20.2975C20.538 16.512 20.7411 16.5943 20.9067 16.7588C21.0724 16.9233 21.1552 17.1263 21.1552 17.368C21.1552 17.6137 21.0724 17.8173 20.9067 17.9788C20.7411 18.1404 20.538 18.2213 20.2975 18.2213H3.70197ZM3.70197 12.8518C3.46147 12.8518 3.25939 12.7694 3.09572 12.6048C2.93205 12.4403 2.85022 12.2372 2.85022 11.9955C2.85022 11.754 2.93205 11.5524 3.09572 11.3908C3.25939 11.2291 3.46147 11.1483 3.70197 11.1483H20.2975C20.538 11.1483 20.7411 11.2306 20.9067 11.3953C21.0724 11.5598 21.1552 11.7628 21.1552 12.0045C21.1552 12.246 21.0724 12.4476 20.9067 12.6093C20.7411 12.7709 20.538 12.8518 20.2975 12.8518H3.70197ZM3.70197 7.488C3.46147 7.488 3.25939 7.40575 3.09572 7.24125C2.93205 7.07675 2.85022 6.87167 2.85022 6.626C2.85022 6.38433 2.93205 6.18275 3.09572 6.02125C3.25939 5.85958 3.46147 5.77875 3.70197 5.77875H20.2975C20.538 5.77875 20.7411 5.861 20.9067 6.0255C21.0724 6.19 21.1552 6.39308 21.1552 6.63475C21.1552 6.88042 21.0724 7.08408 20.9067 7.24575C20.7411 7.40725 20.538 7.488 20.2975 7.488H3.70197Z" fill="#28160E"/>
</svg>
